<mxfile host="app.diagrams.net" modified="2024-03-05T22:07:02.851Z" agent="Mozilla/5.0 (X11; Linux x86_64; rv:122.0) Gecko/20100101 Firefox/122.0" version="24.0.0" etag="ni_Clm8vrQHnpn8lzugA" type="github">
  <diagram name="PÃ¡gina-1" id="srpo2G57664xU3DKkpJk">
    <mxGraphModel>
      <root>
        <mxCell id="0" />
        <mxCell id="1" parent="0" />
      </root>
    </mxGraphModel>
  </diagram>
</mxfile>
